<svg height="512pt" viewBox="-88 0 512 512.00025" width="512pt" xmlns="http://www.w3.org/2000/svg"><path d="m142.125 336.796875v165.097656c0 5.582031 4.527344 10.105469 10.109375 10.105469h30.9375c5.582031 0 10.105469-4.523438 10.105469-10.105469v-165.097656zm0 0" fill="#a0634a"/><path d="m162.730469 501.894531v-165.097656h-20.605469v165.097656c0 5.582031 4.527344 10.105469 10.109375 10.105469h20.605469c-5.582032 0-10.109375-4.523438-10.109375-10.105469zm0 0" fill="#915039"/><path d="m115.648438 305.34375v21.097656c0 6.855469 5.558593 12.414063 12.414062 12.414063h79.277344c6.855468 0 12.414062-5.558594 12.414062-12.414063v-21.097656zm0 0" fill="#915039"/><path d="m167.703125 27.136719-121.558594 64.070312 28.757813 185.378907h185.597656l28.757812-185.378907zm0 0" fill="#e4e3e1"/><path d="m74.445312 87.148438 103.558594-54.582032-10.300781-5.429687-121.558594 64.070312 28.757813 185.378907h20.605468l-27.425781-176.785157c-.796875-5.140625 1.757813-10.222656 6.363281-12.652343zm0 0" fill="#d1d0cf"/><path d="m69.988281 244.898438 4.914063 31.6875h185.597656l4.914062-31.6875zm0 0" fill="#d1d0cf"/><path d="m69.988281 244.898438 4.917969 31.6875h20.601562l-4.914062-31.6875zm0 0" fill="#afafaf"/><path d="m291.433594 295.605469v-7.859375c0-6.488282-5.308594-11.796875-11.796875-11.796875h-223.871094c-6.484375 0-11.792969 5.308593-11.792969 11.796875v7.859375c0 6.488281 5.304688 11.796875 11.792969 11.796875h223.871094c6.488281 0 11.796875-5.308594 11.796875-11.796875zm0 0" fill="#a0634a"/><path d="m207.339844 318.25h-79.277344c-6.855469 0-12.414062-5.558594-12.414062-12.414062v20.605468c0 6.855469 5.558593 12.414063 12.414062 12.414063h79.277344c6.855468 0 12.414062-5.558594 12.414062-12.414063v-20.605468c0 6.855468-5.558594 12.414062-12.414062 12.414062zm0 0" fill="#7f4330"/><path d="m279.636719 286.796875h-223.871094c-4.140625 0-7.796875-2.167969-9.902344-5.421875-1.191406 1.839844-1.890625 4.023438-1.890625 6.371094v7.859375c0 6.488281 5.304688 11.796875 11.792969 11.796875h223.871094c6.488281 0 11.796875-5.308594 11.796875-11.796875v-7.859375c0-2.347656-.703125-4.53125-1.894532-6.371094-2.105468 3.253906-5.757812 5.421875-9.902343 5.421875zm0 0" fill="#915039"/><path d="m315.90625 105.886719-148.203125-77.535157-148.207031 77.53125c-6.515625 3.410157-14.566406.890626-17.976563-5.625-3.410156-6.519531-.886719-14.570312 5.628907-17.980468l154.378906-80.761719c3.867187-2.019531 8.480468-2.019531 12.347656 0l154.382812 80.761719c6.515626 3.410156 9.035157 11.460937 5.625 17.980468-3.410156 6.519532-11.460937 9.035157-17.976562 5.628907zm0 0" fill="#f45858"/><path d="m27.753906 82.277344 150.25-78.601563-4.128906-2.160156c-3.867188-2.019531-8.480469-2.019531-12.347656 0l-154.378906 80.761719c-6.519532 3.410156-9.039063 11.460937-5.628907 17.980468 3.410157 6.515626 11.460938 9.035157 17.976563 5.625l4.863281-2.542968c-6.21875-6.429688-4.449219-16.957032 3.394531-21.0625zm0 0" fill="#e84949"/><path d="m224.769531 154.507812c0 30.132813-24.425781 54.558594-54.558593 54.558594-30.132813 0-54.5625-24.425781-54.5625-54.558594 0-30.136718 24.429687-54.5625 54.5625-54.5625 30.132812 0 54.558593 24.425782 54.558593 54.5625zm0 0" fill="#525468"/><path d="m136.253906 154.507812c0-26.613281 19.054688-48.757812 44.257813-53.578124-3.335938-.636719-6.777344-.984376-10.300781-.984376-30.132813 0-54.5625 24.429688-54.5625 54.5625 0 30.132813 24.429687 54.558594 54.5625 54.558594 3.523437 0 6.964843-.347656 10.300781-.984375-25.203125-4.820312-44.257813-26.964843-44.257813-53.574219zm0 0" fill="#3e4151"/></svg>