<svg id="SB" xmlns="http://www.w3.org/2000/svg" width="537.6" height="104.4" viewBox="0 0 5376 1044">
  <defs>
    <style>
      .cls-1 {
        font-size: 50px;
        font-family: Poppins;
        font-weight: 700;
      }

      .cls-2, .cls-3 {
        fill-rule: evenodd;
      }

      .cls-3 {
        fill: #6747cd;
      }
    </style>
  </defs>
  <text id="SAJILOBACHAT" class="cls-1" transform="translate(853.193 734.599) scale(11.875)">SAJILOBACHAT</text>
  <path class="cls-2" d="M470.513,54.4L96.159,430.642S3.935,521.38.92,617.347c0,0-13.326,113.685,83.923,155.588,0,0,79.248,23.394,127.3-8.487L211.2,602.26s-28.427,28.521-38.662,34.889-24.3,8.381-33.946,3.772c-10.78-5.15-17.956-25.374-4.714-41.49L471.456,257.138Z"/>
  <path id="Color_Fill_1" data-name="Color Fill 1" class="cls-3" d="M241.374,539.082l139.558-140.5V743.7l83.923-91.466s39.361-50.22-9.429-69.779c0,0-18.434-7.5-41.491,16.03l-0.943-131.071s78.294-35.378,156.531,13.2c0,0,63.619,40.532,56.577,120.7,0,0,3.549,60.017-58.463,120.7L241.374,1043.56V539.082Z"/>
  <path class="cls-3" d="M241.374,241.108V135.5L380.932-.289v101.84Z"/>
</svg>
