<svg xmlns="http://www.w3.org/2000/svg" xmlns:xlink="http://www.w3.org/1999/xlink" viewBox="0 0 339.51 415.34"><defs><style>.cls-1{isolation:isolate;}.cls-2{fill:#01a;}.cls-3{fill:url(#Degradado_sin_nombre_47);}.cls-4{fill:#ffae00;}.cls-5{fill:#ffd600;}.cls-6{fill:#ffe300;}.cls-15,.cls-7{fill:#ff7c00;}.cls-8{fill:#ff5b00;}.cls-9{fill:#ffd900;}.cls-10{fill:#fe0;}.cls-11{fill:url(#Degradado_sin_nombre_40);}.cls-12{fill:url(#Degradado_sin_nombre_40-2);}.cls-13{fill:url(#Degradado_sin_nombre_47-2);}.cls-14{fill:url(#Degradado_sin_nombre_40-3);}.cls-15{opacity:0.43;}.cls-15,.cls-16{mix-blend-mode:multiply;}.cls-16{opacity:0.5;}.cls-17{fill:#ff0;}.cls-18{fill:#00081e;}.cls-19{fill:#0083ff;}.cls-20{fill:#009eff;}.cls-21{fill:#00e2ff;}.cls-22{fill:#eaf5ff;}.cls-23{fill:#0041dd;}.cls-24{fill:#c6d7ff;}.cls-25{fill:#fff;}.cls-26{fill:#e1ebff;}.cls-27{fill:#ffb000;}.cls-28{fill:#ffdc00;}.cls-29{fill:#ffe400;}.cls-30{fill:#000855;}.cls-31{fill:#001879;}.cls-32{fill:#0065e3;}.cls-33{fill:#0043b2;}.cls-34{fill:#009bff;}.cls-35{fill:#0023ad;}.cls-36{fill:#0018a3;}.cls-37{fill:#00b0ff;}.cls-38{fill:#0bf;}.cls-39{fill:#db9a70;}.cls-40{fill:#0e1422;}.cls-41{fill:#021234;}.cls-42{fill:#021252;}.cls-43{fill:#bce9ff;}.cls-44{fill:url(#Degradado_sin_nombre_40-4);}.cls-45{fill:#e8ac81;}.cls-46{fill:#e2f4ff;}.cls-47{fill:#021e5d;}.cls-48{fill:#0e1f3b;}.cls-49{fill:url(#Degradado_sin_nombre_40-5);}</style><linearGradient id="Degradado_sin_nombre_47" x1="312.83" y1="357.89" x2="369.99" y2="219.75" gradientUnits="userSpaceOnUse"><stop offset="0" stop-color="#00139e" stop-opacity="0"/><stop offset="0.02" stop-color="#0016a1" stop-opacity="0.03"/><stop offset="0.18" stop-color="#002fb9" stop-opacity="0.28"/><stop offset="0.34" stop-color="#0045cf" stop-opacity="0.5"/><stop offset="0.5" stop-color="#0056e0" stop-opacity="0.68"/><stop offset="0.64" stop-color="#0064ed" stop-opacity="0.82"/><stop offset="0.78" stop-color="#006ef7" stop-opacity="0.92"/><stop offset="0.9" stop-color="#0074fd" stop-opacity="0.98"/><stop offset="1" stop-color="#0076ff"/></linearGradient><linearGradient id="Degradado_sin_nombre_40" x1="104.59" y1="231.47" x2="161.79" y2="93.25" gradientUnits="userSpaceOnUse"><stop offset="0" stop-color="#00139e" stop-opacity="0"/><stop offset="0.11" stop-color="#0027b2" stop-opacity="0.2"/><stop offset="0.24" stop-color="#003cc6" stop-opacity="0.41"/><stop offset="0.37" stop-color="#004ed7" stop-opacity="0.59"/><stop offset="0.5" stop-color="#005ce6" stop-opacity="0.74"/><stop offset="0.63" stop-color="#0067f1" stop-opacity="0.85"/><stop offset="0.76" stop-color="#0070f9" stop-opacity="0.93"/><stop offset="0.88" stop-color="#0074fd" stop-opacity="0.98"/><stop offset="1" stop-color="#0076ff"/></linearGradient><linearGradient id="Degradado_sin_nombre_40-2" x1="258.34" y1="240.25" x2="315.53" y2="102.04" xlink:href="#Degradado_sin_nombre_40"/><linearGradient id="Degradado_sin_nombre_47-2" x1="46.62" y1="438.99" x2="123.13" y2="254.08" xlink:href="#Degradado_sin_nombre_47"/><linearGradient id="Degradado_sin_nombre_40-3" x1="195.74" y1="423.96" x2="380.61" y2="-22.8" xlink:href="#Degradado_sin_nombre_40"/><linearGradient id="Degradado_sin_nombre_40-4" x1="219.51" y1="52.3" x2="224.93" y2="52.3" xlink:href="#Degradado_sin_nombre_40"/><linearGradient id="Degradado_sin_nombre_40-5" x1="263.64" y1="92.05" x2="294.41" y2="111.5" xlink:href="#Degradado_sin_nombre_40"/></defs><title>pricing</title><g class="cls-1"><g id="OBJECTS"><path class="cls-2" d="M123.81,374.16c-13,7.7-12.53,20,1.09,27.46s35.23,7.28,48.25-.42,12.54-20-1.09-27.46S136.83,366.46,123.81,374.16Z" transform="translate(-50.33 -36.29)"/><path class="cls-2" d="M302,384.88c-13,7.7-12.54,20,1.09,27.46s35.23,7.28,48.25-.42,12.53-20-1.1-27.46S315,377.18,302,384.88Z" transform="translate(-50.33 -36.29)"/><path class="cls-3" d="M315.6,338.06c.93.76,1.86,1.52,2.8,2.26l45.82-101.78,4.06,4.32-.82-13.92-10.08,2.29,4.23,4.52Z" transform="translate(-50.33 -36.29)"/><path class="cls-2" d="M206.2,322.48c-25.07,14.82-24.13,38.49,2.1,52.86s67.81,14,92.87-.8,24.12-38.49-2.1-52.87S231.26,307.65,206.2,322.48Zm21.48,11.77c13.73-8.11,36.49-8.31,50.85-.44s14.88,20.83,1.15,28.95-36.49,8.31-50.85.44S214,342.37,227.68,334.25Z" transform="translate(-50.33 -36.29)"/><path class="cls-4" d="M299.67,309.06c-26.23-14.38-67.81-14-92.87.81-8.06,4.77-13.42,10.45-16.12,16.45l.42,5.12-2.79,2.13c0,.94.74,12,.83,12.93v.15c1,9.08,7.71,18,20.17,24.84,26.22,14.37,67.8,14,92.87-.81,12-7.11,18.05-16.27,18.18-25.45h0v-.4c0-.4,0-.8,0-1.2l-.68-14L318.41,328C315.69,321.05,309.43,314.41,299.67,309.06ZM279.14,321.2c14.36,7.88,14.87,20.84,1.15,28.95s-36.49,8.31-50.85.44-14.88-20.83-1.15-28.94S264.78,313.33,279.14,321.2Z" transform="translate(-50.33 -36.29)"/><path class="cls-5" d="M285.75,377.73l.36-32.16a19.07,19.07,0,0,0,1.8-2.25l14,7.66-.22,20A75.25,75.25,0,0,1,285.75,377.73Z" transform="translate(-50.33 -36.29)"/><path class="cls-5" d="M200.25,314.42l22,12.05c-6.3,7-5,15.65,3.85,22l-.33,29.62a78.91,78.91,0,0,1-16.43-6.61,52.13,52.13,0,0,1-11-7.93l.54-47.94C199.29,315.21,199.76,314.81,200.25,314.42Z" transform="translate(-50.33 -36.29)"/><path class="cls-5" d="M232.11,351.92a51.72,51.72,0,0,0,15.13,4l.67.37-.28,25.47a108.29,108.29,0,0,1-15.83-2.18Z" transform="translate(-50.33 -36.29)"/><path class="cls-5" d="M251.63,365.83l3.93,2.15-.26,14c-1.33,0-2.65,0-4-.07Z" transform="translate(-50.33 -36.29)"/><path class="cls-5" d="M277.06,359.27l3.93,2.15-.33,17.69c-1.32.32-2.65.6-4,.87Z" transform="translate(-50.33 -36.29)"/><path class="cls-6" d="M299.48,303.61c-26.15-14.52-67.81-14-92.87.81s-24.12,38.49,2.1,52.86,67.71,13.85,92.87-.8C326.49,342,325.63,318.13,299.48,303.61ZM279,315.75c14.36,7.87,14.87,20.83,1.15,28.95s-36.49,8.31-50.85.44-14.88-20.83-1.15-28.95S264.59,307.88,279,315.75Z" transform="translate(-50.33 -36.29)"/><path class="cls-7" d="M206.2,304.19c-25.07,14.82-24.13,38.49,2.1,52.87s67.81,14,92.87-.81,24.12-38.49-2.1-52.87S231.26,289.37,206.2,304.19ZM227.68,316c13.73-8.12,36.49-8.31,50.85-.44s14.88,20.83,1.15,28.94-36.49,8.32-50.85.44S214,324.08,227.68,316Z" transform="translate(-50.33 -36.29)"/><path class="cls-8" d="M212.7,307.76c-21.85,12.92-21,33.55,1.83,46.08s59.11,12.22,81-.7,21-33.56-1.83-46.09S234.55,294.83,212.7,307.76Z" transform="translate(-50.33 -36.29)"/><path class="cls-4" d="M215.7,309.4c-20.27,12-19.51,31.12,1.7,42.75s54.83,11.33,75.1-.65,19.5-31.13-1.7-42.75S236,297.41,215.7,309.4Z" transform="translate(-50.33 -36.29)"/><path class="cls-9" d="M292.19,309.55l-90.26,26.34c2,6,7.15,11.7,15.47,16.26a60,60,0,0,0,8.41,3.77l81.32-23.73C307.84,324.08,302.84,315.83,292.19,309.55ZM201.11,328.1l80.34-23.45a77.36,77.36,0,0,0-13.07-3.26c-23.1,6.44-47.49,13.39-64.2,18.52A19.65,19.65,0,0,0,201.11,328.1Z" transform="translate(-50.33 -36.29)"/><path class="cls-10" d="M278.69,323.85q5.49,3,5.34,6.72c-.1,2.44-1.43,4.74-4,6.87l4.51,2.5a22.72,22.72,0,0,1,2,1.17,3.64,3.64,0,0,1,1.05,1.12,1.1,1.1,0,0,1-.18,1.4,8.28,8.28,0,0,1-2.22,1.57,12.73,12.73,0,0,1-2.93,1.17,5.58,5.58,0,0,1-2.57,0,10.9,10.9,0,0,1-2-.61q-.75-.33-2.16-1.11l-4.36-2.42a39.58,39.58,0,0,1-7.8,1.86,38.33,38.33,0,0,1-6.13.43l-2.2-.13a12.75,12.75,0,0,1-4.57-.78c-1.17-.65-1.66-1.87-1.47-3.65a3.13,3.13,0,0,1,1.81-2.42q1.84-1,7-1.05h.73a15.8,15.8,0,0,0,8-1.38q5.69-3,1.39-5.41c-1-.57-2.55-.63-4.54-.18a69.11,69.11,0,0,0-6.74,1.94q-3.73,1.26-7.94,2.28a29.29,29.29,0,0,1-9.09.63,22.16,22.16,0,0,1-9.19-2.76q-4.15-2.29-4.62-5.72c-.3-2.29.93-4.52,3.7-6.71L225.56,317c-.94-.52-1.6-.92-2-1.19a4.21,4.21,0,0,1-1.05-1.09,1,1,0,0,1,.18-1.39,8.26,8.26,0,0,1,2.26-1.59,9.49,9.49,0,0,1,3.92-1.21,7.08,7.08,0,0,1,2.92.33,26.47,26.47,0,0,1,2.83,1.4l3.94,2.18a38.29,38.29,0,0,1,5.11-1.42c1.7-.34,2.94-.54,3.73-.61l1.25-.05.52-.05c2.36-.08,3.87.06,4.52.42a4.13,4.13,0,0,1,1.71,2.62q.73,2.65-1.41,3.8a12.17,12.17,0,0,1-4.28,1.06l-1.25,0c-.64,0-1.21.08-1.7.14a11.94,11.94,0,0,0-2,.49,15.54,15.54,0,0,0-2.63,1.13,3.7,3.7,0,0,0-1.88,2c-.29.79,0,1.44,1,2a6.83,6.83,0,0,0,4.21.62,20.28,20.28,0,0,0,5.15-1.36q2.63-1.05,6.13-2.11c2.33-.71,4.6-1.29,6.79-1.74a22.87,22.87,0,0,1,15.17,2.48Z" transform="translate(-50.33 -36.29)"/><path class="cls-7" d="M278,323.41q5.49,3,5.34,6.72t-4,6.87l4.5,2.5c.89.49,1.55.88,2,1.17a3.73,3.73,0,0,1,1,1.12,1.1,1.1,0,0,1-.18,1.4,8.28,8.28,0,0,1-2.22,1.57,12.73,12.73,0,0,1-2.93,1.17,5.58,5.58,0,0,1-2.57,0,10.9,10.9,0,0,1-2-.61q-.75-.33-2.16-1.11l-4.36-2.42a38.89,38.89,0,0,1-7.8,1.86,37.18,37.18,0,0,1-6.13.43l-2.2-.13a12.75,12.75,0,0,1-4.57-.78c-1.17-.65-1.66-1.87-1.47-3.65a3.13,3.13,0,0,1,1.81-2.42q1.84-1,7-1.05h.73a15.8,15.8,0,0,0,8.05-1.38q5.68-3,1.39-5.41-1.54-.85-4.54-.18a69.11,69.11,0,0,0-6.74,1.94q-3.74,1.26-7.94,2.28a29.27,29.27,0,0,1-9.09.63,22.21,22.21,0,0,1-9.19-2.76q-4.16-2.29-4.62-5.72c-.3-2.29.93-4.52,3.7-6.71l-3.94-2.19c-.94-.52-1.6-.92-2-1.19a4.06,4.06,0,0,1-1.05-1.09,1,1,0,0,1,.18-1.39,8.43,8.43,0,0,1,2.26-1.59,9.69,9.69,0,0,1,3.92-1.21,7.06,7.06,0,0,1,2.92.33,26.47,26.47,0,0,1,2.83,1.4l3.94,2.18a38.29,38.29,0,0,1,5.11-1.42c1.7-.34,2.94-.54,3.73-.61l1.25-.05.52-.05q3.54-.12,4.53.42a4.16,4.16,0,0,1,1.7,2.62q.74,2.65-1.41,3.8a12.17,12.17,0,0,1-4.28,1.06l-1.25,0c-.64,0-1.21.08-1.7.14a11.94,11.94,0,0,0-2,.49,15.89,15.89,0,0,0-2.63,1.13,3.7,3.7,0,0,0-1.88,2c-.29.79,0,1.44,1,2a6.92,6.92,0,0,0,4.22.63,20.78,20.78,0,0,0,5.14-1.37q2.63-1,6.13-2.11c2.33-.71,4.6-1.29,6.79-1.74A23,23,0,0,1,278,323.41Z" transform="translate(-50.33 -36.29)"/><path class="cls-9" d="M291.77,351.1c20.15-11.92,19.51-30.91-1.35-42.55l.38.2c21.2,11.62,22,30.76,1.7,42.75s-53.89,12.27-75.1.65l-.36-.21C238.27,363.37,271.62,363,291.77,351.1Z" transform="translate(-50.33 -36.29)"/><polygon class="cls-11" points="128.55 159.33 138.08 138.63 143.51 144.43 142.41 125.79 128.93 128.86 134.59 134.9 122.89 160.5 133.31 171.8 121.78 196.55 128.75 204.11 107.65 250 114.57 246.3 134.37 203.32 127.39 195.76 138.97 170.63 128.55 159.33"/><polygon class="cls-12" points="282.29 168.12 291.82 147.42 297.25 153.21 296.15 134.57 282.67 137.64 288.33 143.69 276.63 169.28 287.05 180.58 275.52 205.33 282.5 212.89 261.39 258.78 268.31 255.09 288.11 212.11 281.13 204.55 292.71 179.42 282.29 168.12"/><path class="cls-13" d="M50.33,412.45c1.24,1,2.48,2,3.75,3l61.34-136.25,5.42,5.79-1.1-18.64-13.48,3.07,5.66,6.05Z" transform="translate(-50.33 -36.29)"/><path class="cls-14" d="M300.87,236.19l-18.78,40.32c5.4.36,10.8.79,16.2,1.24l20.88-45.33-33.69-36.53L316.3,129l17.54,18.72-3.55-60.24-43.58,9.92L305,116.93l-37.82,82.73Z" transform="translate(-50.33 -36.29)"/><path class="cls-15" d="M206.2,301.72c-25.07,14.82-24.13,38.49,2.1,52.86s67.81,14,92.87-.8,24.12-38.49-2.1-52.87S231.26,286.89,206.2,301.72Zm21.48,11.78c13.73-8.12,36.49-8.32,50.85-.45s14.88,20.83,1.15,28.95-36.49,8.31-50.85.44S214,321.61,227.68,313.5Z" transform="translate(-50.33 -36.29)"/><path class="cls-4" d="M299.67,288.3c-26.23-14.37-67.81-14-92.87.81-8.06,4.77-13.42,10.45-16.12,16.45l.42,5.12-2.79,2.13c0,.94.74,12,.83,12.93v.15c1,9.08,7.71,18,20.17,24.84,26.22,14.38,67.8,14,92.87-.81,12-7.11,18.05-16.27,18.18-25.45h0v-.4c0-.4,0-.8,0-1.2l-.68-14-1.25-1.62C315.69,300.29,309.43,293.65,299.67,288.3Zm-20.53,12.15c14.36,7.87,14.87,20.83,1.15,28.94s-36.49,8.31-50.85.44-14.88-20.83-1.15-28.94S264.78,292.57,279.14,300.45Z" transform="translate(-50.33 -36.29)"/><path class="cls-5" d="M285.75,357l.36-32.16a17.57,17.57,0,0,0,1.8-2.25l14,7.66-.22,20A75.25,75.25,0,0,1,285.75,357Z" transform="translate(-50.33 -36.29)"/><path class="cls-5" d="M200.25,293.66l22,12c-6.3,7-5,15.65,3.85,22l-.33,29.62a78.91,78.91,0,0,1-16.43-6.61,51.78,51.78,0,0,1-11-7.93l.54-47.94C199.29,294.45,199.76,294.05,200.25,293.66Z" transform="translate(-50.33 -36.29)"/><path class="cls-5" d="M232.11,331.16a51.72,51.72,0,0,0,15.13,4l.67.37L247.63,361a108.29,108.29,0,0,1-15.83-2.18Z" transform="translate(-50.33 -36.29)"/><path class="cls-5" d="M251.63,345.07l3.93,2.15-.26,14c-1.33,0-2.65,0-4-.07Z" transform="translate(-50.33 -36.29)"/><path class="cls-5" d="M277.06,338.51l3.93,2.16-.33,17.69c-1.32.31-2.65.59-4,.86Z" transform="translate(-50.33 -36.29)"/><path class="cls-6" d="M299.48,282.85c-26.15-14.52-67.81-14-92.87.81s-24.12,38.49,2.1,52.86,67.71,13.85,92.87-.8C326.49,321.22,325.63,297.37,299.48,282.85ZM279,295c14.36,7.88,14.87,20.83,1.15,28.95s-36.49,8.31-50.85.44-14.88-20.83-1.15-28.94S264.59,287.12,279,295Z" transform="translate(-50.33 -36.29)"/><path class="cls-7" d="M206.2,283.43c-25.07,14.82-24.13,38.49,2.1,52.87s67.81,14,92.87-.81,24.12-38.49-2.1-52.87S231.26,268.61,206.2,283.43Zm21.48,11.78c13.73-8.12,36.49-8.31,50.85-.44s14.88,20.83,1.15,28.94-36.49,8.32-50.85.45S214,303.32,227.68,295.21Z" transform="translate(-50.33 -36.29)"/><path class="cls-8" d="M212.7,287c-21.85,12.92-21,33.55,1.83,46.08s59.11,12.22,81-.7,21-33.55-1.83-46.09S234.55,274.08,212.7,287Z" transform="translate(-50.33 -36.29)"/><path class="cls-4" d="M215.7,288.64c-20.27,12-19.51,31.12,1.7,42.75s54.83,11.33,75.1-.65S312,299.61,290.8,288,236,276.65,215.7,288.64Z" transform="translate(-50.33 -36.29)"/><path class="cls-9" d="M292.19,288.79l-90.26,26.34c2,6,7.15,11.7,15.47,16.26a61.2,61.2,0,0,0,8.41,3.78l81.32-23.74C307.84,303.32,302.84,295.07,292.19,288.79Zm-91.08,18.55,80.34-23.45a77.36,77.36,0,0,0-13.07-3.26c-23.1,6.44-47.49,13.39-64.2,18.52A19.65,19.65,0,0,0,201.11,307.34Z" transform="translate(-50.33 -36.29)"/><path class="cls-10" d="M278.69,303.09q5.49,3,5.34,6.72c-.1,2.45-1.43,4.74-4,6.87l4.51,2.5a22.72,22.72,0,0,1,2,1.17,3.64,3.64,0,0,1,1.05,1.12,1.1,1.1,0,0,1-.18,1.4,8.28,8.28,0,0,1-2.22,1.57,12.73,12.73,0,0,1-2.93,1.17,5.58,5.58,0,0,1-2.57,0,10.9,10.9,0,0,1-2-.61q-.75-.33-2.16-1.11l-4.36-2.42a38.89,38.89,0,0,1-7.8,1.86,37.18,37.18,0,0,1-6.13.43l-2.2-.13a12.75,12.75,0,0,1-4.57-.78c-1.17-.65-1.66-1.87-1.47-3.65a3.13,3.13,0,0,1,1.81-2.42q1.84-1,7-1h.73a15.8,15.8,0,0,0,8-1.38q5.69-3,1.39-5.41c-1-.57-2.55-.63-4.54-.18a69.11,69.11,0,0,0-6.74,1.94c-2.49.85-5.14,1.6-7.94,2.28a29.29,29.29,0,0,1-9.09.63,22.16,22.16,0,0,1-9.19-2.76q-4.15-2.29-4.62-5.72c-.3-2.29.93-4.52,3.7-6.71l-3.94-2.19c-.94-.52-1.6-.92-2-1.19a4.16,4.16,0,0,1-1.05-1.08,1,1,0,0,1,.18-1.4A8.26,8.26,0,0,1,225,291a9.64,9.64,0,0,1,3.92-1.21,7.08,7.08,0,0,1,2.92.33,26.47,26.47,0,0,1,2.83,1.4l3.94,2.18a38.29,38.29,0,0,1,5.11-1.42c1.7-.34,2.94-.54,3.73-.61l1.25-.05.52-.05c2.36-.08,3.87.06,4.52.42a4.13,4.13,0,0,1,1.71,2.62q.73,2.65-1.41,3.81a12.42,12.42,0,0,1-4.28,1.05l-1.25,0c-.64,0-1.21.08-1.7.14a11.94,11.94,0,0,0-2,.49,15.54,15.54,0,0,0-2.63,1.13,3.7,3.7,0,0,0-1.88,2c-.29.79,0,1.44,1,2a6.9,6.9,0,0,0,4.21.63,20.74,20.74,0,0,0,5.15-1.37q2.63-1.05,6.13-2.11c2.33-.71,4.6-1.29,6.79-1.74a23,23,0,0,1,15.17,2.48Z" transform="translate(-50.33 -36.29)"/><path class="cls-7" d="M278,302.65q5.49,3,5.34,6.72t-4,6.87l4.5,2.5c.89.49,1.55.88,2,1.17a3.73,3.73,0,0,1,1,1.12,1.1,1.1,0,0,1-.18,1.4,8.07,8.07,0,0,1-2.22,1.57,12.73,12.73,0,0,1-2.93,1.17,5.58,5.58,0,0,1-2.57,0,10.18,10.18,0,0,1-2-.61q-.75-.33-2.16-1.11l-4.36-2.42a38.89,38.89,0,0,1-7.8,1.86,37.18,37.18,0,0,1-6.13.43l-2.2-.13a12.75,12.75,0,0,1-4.57-.78c-1.17-.65-1.66-1.87-1.47-3.65a3.13,3.13,0,0,1,1.81-2.42q1.84-1,7-1h.73a15.8,15.8,0,0,0,8.05-1.38q5.68-3,1.39-5.41-1.54-.86-4.54-.18a69.11,69.11,0,0,0-6.74,1.94c-2.49.85-5.14,1.6-7.94,2.28a29.27,29.27,0,0,1-9.09.63,22.21,22.21,0,0,1-9.19-2.76q-4.16-2.29-4.62-5.72c-.3-2.29.93-4.52,3.7-6.71l-3.94-2.19c-.94-.52-1.6-.91-2-1.19a4.16,4.16,0,0,1-1.05-1.08,1,1,0,0,1,.18-1.4,8.43,8.43,0,0,1,2.26-1.59,9.51,9.51,0,0,1,3.92-1.2,6.92,6.92,0,0,1,2.92.32,26.47,26.47,0,0,1,2.83,1.4l3.94,2.18a38.29,38.29,0,0,1,5.11-1.42,34.83,34.83,0,0,1,3.73-.6l1.25-.06.52-.05q3.54-.12,4.53.42a4.16,4.16,0,0,1,1.7,2.62q.74,2.65-1.41,3.81a12.42,12.42,0,0,1-4.28,1l-1.25.05c-.64,0-1.21.09-1.7.14a11.94,11.94,0,0,0-2,.49,15.89,15.89,0,0,0-2.63,1.13,3.7,3.7,0,0,0-1.88,2c-.29.79,0,1.44,1,2a6.92,6.92,0,0,0,4.22.63,20.78,20.78,0,0,0,5.14-1.37q2.63-1,6.13-2.11c2.33-.71,4.6-1.29,6.79-1.74A23,23,0,0,1,278,302.65Z" transform="translate(-50.33 -36.29)"/><path class="cls-9" d="M291.77,330.34c20.15-11.92,19.51-30.9-1.35-42.55l.38.2c21.2,11.62,22,30.76,1.7,42.75s-53.89,12.28-75.1.65l-.36-.21C238.27,342.61,271.62,342.25,291.77,330.34Z" transform="translate(-50.33 -36.29)"/><path class="cls-15" d="M206.2,278.73c-25.07,14.82-24.13,38.49,2.1,52.87s67.81,14,92.87-.81,24.12-38.49-2.1-52.86S231.26,263.91,206.2,278.73Zm21.48,11.78c13.73-8.11,36.49-8.31,50.85-.44s14.88,20.83,1.15,28.95-36.49,8.31-50.85.44S214,298.63,227.68,290.51Z" transform="translate(-50.33 -36.29)"/><path class="cls-4" d="M299.67,265.32c-26.23-14.38-67.81-14-92.87.8-8.06,4.77-13.42,10.46-16.12,16.45l.42,5.13-2.79,2.13c0,.94.74,12,.83,12.93v.16h0c1,9.08,7.71,18,20.17,24.84,26.22,14.37,67.8,14,92.87-.81,12-7.12,18.05-16.27,18.18-25.46h0v-.39c0-.4,0-.8,0-1.2l-.68-14-1.25-1.62C315.69,277.31,309.43,270.67,299.67,265.32Zm-20.53,12.14c14.36,7.87,14.87,20.83,1.15,29s-36.49,8.31-50.85.44-14.88-20.83-1.15-29S264.78,269.59,279.14,277.46Z" transform="translate(-50.33 -36.29)"/><path class="cls-5" d="M285.75,334l.36-32.16a18.37,18.37,0,0,0,1.8-2.26l14,7.67-.22,20A75.25,75.25,0,0,1,285.75,334Z" transform="translate(-50.33 -36.29)"/><path class="cls-5" d="M200.25,270.67l22,12.06c-6.3,7-5,15.65,3.85,22l-.33,29.61a79.44,79.44,0,0,1-16.43-6.6,52.13,52.13,0,0,1-11-7.93l.54-47.94C199.29,271.47,199.76,271.07,200.25,270.67Z" transform="translate(-50.33 -36.29)"/><path class="cls-5" d="M232.11,308.18a51.71,51.71,0,0,0,15.13,4l.67.37L247.63,338a109.67,109.67,0,0,1-15.83-2.18Z" transform="translate(-50.33 -36.29)"/><path class="cls-5" d="M251.63,322.08l3.93,2.16-.26,14.05c-1.33,0-2.65,0-4-.07Z" transform="translate(-50.33 -36.29)"/><path class="cls-5" d="M277.06,315.53l3.93,2.15-.33,17.69c-1.32.32-2.65.6-4,.86Z" transform="translate(-50.33 -36.29)"/><path class="cls-6" d="M299.48,259.87c-26.15-14.52-67.81-14-92.87.8s-24.12,38.49,2.1,52.87,67.71,13.85,92.87-.81C326.49,298.23,325.63,274.39,299.48,259.87ZM279,272c14.36,7.87,14.87,20.83,1.15,28.95s-36.49,8.31-50.85.44-14.88-20.83-1.15-28.95S264.59,264.14,279,272Z" transform="translate(-50.33 -36.29)"/><path class="cls-7" d="M206.2,260.45c-25.07,14.82-24.13,38.49,2.1,52.86s67.81,14,92.87-.8,24.12-38.49-2.1-52.87S231.26,245.62,206.2,260.45Zm21.48,11.78c13.73-8.12,36.49-8.32,50.85-.45s14.88,20.83,1.15,29-36.49,8.31-50.85.44S214,280.34,227.68,272.23Z" transform="translate(-50.33 -36.29)"/><path class="cls-8" d="M212.7,264c-21.85,12.92-21,33.56,1.83,46.09s59.11,12.22,81-.7,21-33.56-1.83-46.09S234.55,251.09,212.7,264Z" transform="translate(-50.33 -36.29)"/><path class="cls-4" d="M215.7,265.65c-20.27,12-19.51,31.13,1.7,42.76s54.83,11.33,75.1-.66S312,276.63,290.8,265,236,253.67,215.7,265.65Z" transform="translate(-50.33 -36.29)"/><path class="cls-9" d="M292.19,265.81l-90.26,26.34c2,6,7.15,11.7,15.47,16.26a60,60,0,0,0,8.41,3.77l81.32-23.73C307.84,280.33,302.84,272.08,292.19,265.81Zm-91.08,18.54,80.34-23.44a78.34,78.34,0,0,0-13.07-3.27c-23.1,6.45-47.49,13.39-64.2,18.52A19.7,19.7,0,0,0,201.11,284.35Z" transform="translate(-50.33 -36.29)"/><path class="cls-10" d="M278.69,280.11q5.49,3,5.34,6.71c-.1,2.45-1.43,4.74-4,6.88l4.51,2.49c.89.5,1.55.89,2,1.18a3.53,3.53,0,0,1,1.05,1.12,1.1,1.1,0,0,1-.18,1.4,8.08,8.08,0,0,1-2.22,1.56,12.36,12.36,0,0,1-2.93,1.18,5.58,5.58,0,0,1-2.57,0,10.9,10.9,0,0,1-2-.61q-.75-.33-2.16-1.11l-4.36-2.42a38.87,38.87,0,0,1-7.8,1.85,37.42,37.42,0,0,1-6.13.44l-2.2-.13a12.75,12.75,0,0,1-4.57-.78c-1.17-.65-1.66-1.87-1.47-3.65a3.13,3.13,0,0,1,1.81-2.42c1.23-.66,3.56-1,7-1.05h.73a15.59,15.59,0,0,0,8-1.38q5.69-3,1.39-5.4c-1-.57-2.55-.63-4.54-.18a69.11,69.11,0,0,0-6.74,1.94Q252.91,289,248.7,290a29,29,0,0,1-9.09.64,22.16,22.16,0,0,1-9.19-2.76q-4.15-2.29-4.62-5.73t3.7-6.71l-3.94-2.18c-.94-.52-1.6-.92-2-1.19a4.21,4.21,0,0,1-1.05-1.09,1,1,0,0,1,.18-1.4A8.5,8.5,0,0,1,225,268a9.49,9.49,0,0,1,3.92-1.21,7.1,7.1,0,0,1,2.92.32,28.55,28.55,0,0,1,2.83,1.4l3.94,2.19a36.84,36.84,0,0,1,5.11-1.42,35.52,35.52,0,0,1,3.73-.61l1.25-.05.52-.05c2.36-.08,3.87.06,4.52.42a4.13,4.13,0,0,1,1.71,2.61q.73,2.67-1.41,3.81a12.42,12.42,0,0,1-4.28,1.05l-1.25.06c-.64,0-1.21.08-1.7.14a11.74,11.74,0,0,0-2,.48,16.39,16.39,0,0,0-2.63,1.13,3.73,3.73,0,0,0-1.88,2c-.29.79,0,1.45,1,2a6.83,6.83,0,0,0,4.21.62,20.7,20.7,0,0,0,5.15-1.36q2.63-1.05,6.13-2.11c2.33-.71,4.6-1.29,6.79-1.75a23,23,0,0,1,15.17,2.49Z" transform="translate(-50.33 -36.29)"/><path class="cls-7" d="M278,279.67q5.49,3,5.34,6.71t-4,6.88l4.5,2.49c.89.5,1.55.89,2,1.18a3.62,3.62,0,0,1,1,1.12,1.1,1.1,0,0,1-.18,1.4,8.08,8.08,0,0,1-2.22,1.56,12.36,12.36,0,0,1-2.93,1.18,5.58,5.58,0,0,1-2.57,0,10.9,10.9,0,0,1-2-.61q-.75-.33-2.16-1.11l-4.36-2.42a38.87,38.87,0,0,1-7.8,1.85,37.42,37.42,0,0,1-6.13.44l-2.2-.13a12.75,12.75,0,0,1-4.57-.78c-1.17-.65-1.66-1.87-1.47-3.65a3.13,3.13,0,0,1,1.81-2.42c1.23-.66,3.56-1,7-1.05h.73A15.59,15.59,0,0,0,265.8,291q5.68-3,1.39-5.4-1.54-.85-4.54-.18a69.11,69.11,0,0,0-6.74,1.94q-3.74,1.26-7.94,2.27a29,29,0,0,1-9.09.64,22.21,22.21,0,0,1-9.19-2.76q-4.16-2.29-4.62-5.73t3.7-6.71l-3.94-2.18c-.94-.52-1.6-.92-2-1.19a4.21,4.21,0,0,1-1.05-1.09,1,1,0,0,1,.18-1.4,8.67,8.67,0,0,1,2.26-1.58,9.53,9.53,0,0,1,3.92-1.21,7.08,7.08,0,0,1,2.92.32,28.55,28.55,0,0,1,2.83,1.4l3.94,2.19a36.84,36.84,0,0,1,5.11-1.42,35.52,35.52,0,0,1,3.73-.61l1.25-.05.52-.05q3.54-.12,4.53.42a4.16,4.16,0,0,1,1.7,2.61q.74,2.67-1.41,3.81A12.42,12.42,0,0,1,249,276l-1.25.06c-.64,0-1.21.08-1.7.14a11.74,11.74,0,0,0-2,.48,16.79,16.79,0,0,0-2.63,1.13,3.73,3.73,0,0,0-1.88,2c-.29.79,0,1.45,1,2a6.85,6.85,0,0,0,4.22.62,20.74,20.74,0,0,0,5.14-1.36q2.63-1.05,6.13-2.11c2.33-.71,4.6-1.29,6.79-1.74a21.87,21.87,0,0,1,7.36-.14A22.14,22.14,0,0,1,278,279.67Z" transform="translate(-50.33 -36.29)"/><path class="cls-9" d="M291.77,307.35c20.15-11.91,19.51-30.9-1.35-42.54l.38.19c21.2,11.63,22,30.77,1.7,42.75s-53.89,12.28-75.1.66l-.36-.21C238.27,319.62,271.62,319.27,291.77,307.35Z" transform="translate(-50.33 -36.29)"/><path class="cls-15" d="M221.76,248.14c-23.49,8.39-26.55,28.46-6.82,44.82s54.77,22.8,78.26,14.41,26.55-28.47,6.82-44.82S245.25,239.74,221.76,248.14Z" transform="translate(-50.33 -36.29)"/><path class="cls-4" d="M312.31,243.1c-17.73-24.09-55.59-41.27-84.57-38.39-9.32.93-16.57,3.83-21.55,8.13l-1.77,4.82-3.43.76c-.43.84-4.38,11.19-4.69,12.08l-.06.15h0c-2.95,8.64-.59,19.58,7.83,31,17.73,24.09,55.6,41.27,84.57,38.39,13.91-1.39,23.23-7.15,27.21-15.43h0l.15-.37c.17-.36.33-.73.48-1.1l5.26-12.95-.46-2C321.79,260.72,318.92,252.06,312.31,243.1Zm-23.73,2.36c9.7,13.19,4.71,25.16-11.15,26.74s-36.6-7.83-46.31-21-4.71-25.16,11.15-26.74S278.87,232.27,288.58,245.46Z" transform="translate(-50.33 -36.29)"/><path class="cls-5" d="M270.76,299.51l13.88-29a18.26,18.26,0,0,0,2.58-1.29l9.46,12.84-8.63,18A74.4,74.4,0,0,1,270.76,299.51Z" transform="translate(-50.33 -36.29)"/><path class="cls-5" d="M219.88,206.08l14.87,20.19c-8.66,3.7-11.09,12.11-5.77,21.59L216.2,274.58a79.75,79.75,0,0,1-12.12-12.92,51.94,51.94,0,0,1-6.67-11.84l20.68-43.25C218.68,206.4,219.28,206.23,219.88,206.08Z" transform="translate(-50.33 -36.29)"/><path class="cls-5" d="M233,253.52a51.79,51.79,0,0,0,12,10l.45.62-11,23a109.89,109.89,0,0,1-13.43-8.64Z" transform="translate(-50.33 -36.29)"/><path class="cls-5" d="M244.83,274.35l2.66,3.61-6.16,12.63q-1.8-.84-3.57-1.74Z" transform="translate(-50.33 -36.29)"/><path class="cls-5" d="M270.66,279.11l2.66,3.61-7.76,15.9c-1.32-.26-2.65-.57-4-.89Z" transform="translate(-50.33 -36.29)"/><path class="cls-6" d="M314.44,238.07c-17.6-24.18-55.6-41.27-84.57-38.38s-38.09,24.75-20.36,48.83,55.57,41.08,84.57,38.39C322.77,284.24,332,262.26,314.44,238.07Zm-23.74,2.37c9.71,13.18,4.72,25.15-11.15,26.73s-36.59-7.82-46.3-21-4.72-25.16,11.14-26.74S281,227.25,290.7,240.44Z" transform="translate(-50.33 -36.29)"/><path class="cls-7" d="M229.59,199.31c-29,2.88-38.09,24.75-20.36,48.83s55.59,41.27,84.57,38.39,38.09-24.75,20.36-48.84S258.56,196.42,229.59,199.31ZM244.11,219c15.87-1.58,36.6,7.83,46.31,21s4.72,25.15-11.15,26.73-36.59-7.82-46.3-21S228.25,220.62,244.11,219Z" transform="translate(-50.33 -36.29)"/><path class="cls-8" d="M234,205.28c-25.26,2.52-33.2,21.58-17.74,42.57s48.46,36,73.72,33.46,33.21-21.57,17.75-42.57S259.24,202.76,234,205.28Z" transform="translate(-50.33 -36.29)"/><path class="cls-4" d="M236,208c-23.43,2.34-30.8,20-16.46,39.49s44.95,33.38,68.39,31,30.8-20,16.46-39.49S259.44,205.7,236,208Z" transform="translate(-50.33 -36.29)"/><path class="cls-9" d="M305.32,240.39l-92.95-14.13c-.72,6.27,1.55,13.63,7.18,21.26a60.27,60.27,0,0,0,6,7l83.75,12.73C313.4,260.16,312.34,250.56,305.32,240.39Zm-90.41-21.54,82.74,12.57A77.48,77.48,0,0,0,287.17,223c-23.67-3.89-48.72-7.86-66-10.25A19.56,19.56,0,0,0,214.91,218.85Z" transform="translate(-50.33 -36.29)"/><path class="cls-10" d="M287.05,247.67q3.7,5.07,2,8.34t-6.53,4.55l3,4.16c.6.82,1,1.46,1.29,1.89a3.8,3.8,0,0,1,.47,1.46,1.09,1.09,0,0,1-.75,1.19,8,8,0,0,1-2.68.49,12.78,12.78,0,0,1-3.14-.17,5.65,5.65,0,0,1-2.35-1.05,11.19,11.19,0,0,1-1.57-1.41c-.36-.41-.85-1-1.48-1.91l-2.94-4a39.21,39.21,0,0,1-7.85-1.6,38.05,38.05,0,0,1-5.75-2.19l-1.94-1.05a12.75,12.75,0,0,1-3.82-2.63q-1.19-1.62.21-3.93a3.11,3.11,0,0,1,2.66-1.43q2.08-.12,6.78,2l.67.3a15.81,15.81,0,0,0,7.89,2.14q6.42-.34,3.53-4.32-1-1.42-4-2.08a67.27,67.27,0,0,0-6.93-1.07c-2.61-.29-5.34-.72-8.16-1.28a29.25,29.25,0,0,1-8.51-3.26,22.27,22.27,0,0,1-7.18-6.37q-2.79-3.84-1.77-7.14t6.18-4.53l-2.65-3.64c-.64-.87-1.07-1.51-1.32-1.92a4,4,0,0,1-.49-1.43,1,1,0,0,1,.75-1.19,8.42,8.42,0,0,1,2.72-.49,9.69,9.69,0,0,1,4.06.56,7,7,0,0,1,2.51,1.52,26.45,26.45,0,0,1,2,2.46l2.65,3.64a39.5,39.5,0,0,1,5.24.87,33,33,0,0,1,3.63,1l1.16.48.49.17q3.27,1.38,3.93,2.29a4.1,4.1,0,0,1,.44,3.09c-.29,1.82-1.26,2.77-2.88,2.86a12.63,12.63,0,0,1-4.32-.85l-1.16-.48c-.59-.23-1.13-.43-1.6-.59a12.31,12.31,0,0,0-2-.39,15.57,15.57,0,0,0-2.86-.08,3.68,3.68,0,0,0-2.53,1c-.59.59-.57,1.33.06,2.19a6.84,6.84,0,0,0,3.56,2.34,20.14,20.14,0,0,0,5.24.94q2.82.15,6.45.66t6.89,1.28a22.88,22.88,0,0,1,12.71,8.64Z" transform="translate(-50.33 -36.29)"/><path class="cls-7" d="M286.58,247q3.69,5.08,2,8.35t-6.53,4.54l3,4.17q.9,1.23,1.29,1.89a3.55,3.55,0,0,1,.48,1.46,1.1,1.1,0,0,1-.76,1.19,8,8,0,0,1-2.67.48,12.88,12.88,0,0,1-3.15-.16,5.6,5.6,0,0,1-2.35-1.06,10.5,10.5,0,0,1-1.56-1.4c-.36-.41-.86-1.05-1.49-1.92l-2.94-4a43.54,43.54,0,0,1-13.6-3.79l-1.94-1A12.7,12.7,0,0,1,252.6,253c-.79-1.09-.73-2.4.2-3.94a3.16,3.16,0,0,1,2.66-1.43c1.39-.07,3.65.59,6.79,2l.67.3a15.64,15.64,0,0,0,7.88,2.14c4.29-.23,5.46-1.67,3.54-4.31q-1.05-1.44-4-2.08a67.07,67.07,0,0,0-6.93-1.08c-2.61-.29-5.33-.71-8.15-1.28a29,29,0,0,1-8.52-3.26,22.23,22.23,0,0,1-7.17-6.37q-2.81-3.82-1.78-7.14c.69-2.2,2.75-3.7,6.19-4.52l-2.66-3.65c-.63-.86-1.07-1.5-1.31-1.92a4,4,0,0,1-.5-1.43,1,1,0,0,1,.76-1.19,8.4,8.4,0,0,1,2.71-.48,9.58,9.58,0,0,1,4.07.55,7.27,7.27,0,0,1,2.51,1.52,27.36,27.36,0,0,1,2,2.47l2.66,3.64a37.79,37.79,0,0,1,5.23.86c1.68.41,2.89.75,3.64,1l1.16.48.49.18q3.25,1.38,3.92,2.28a4.11,4.11,0,0,1,.45,3.09c-.3,1.82-1.26,2.77-2.88,2.86a12.09,12.09,0,0,1-4.32-.85l-1.16-.47c-.6-.24-1.13-.44-1.61-.59a10.86,10.86,0,0,0-2-.4,15.62,15.62,0,0,0-2.86-.08,3.75,3.75,0,0,0-2.54,1c-.59.6-.57,1.33.07,2.2a6.8,6.8,0,0,0,3.56,2.34,20.56,20.56,0,0,0,5.24.93c1.88.1,4,.32,6.44.66s4.72.77,6.9,1.29a21.74,21.74,0,0,1,6.73,3A22.12,22.12,0,0,1,286.58,247Z" transform="translate(-50.33 -36.29)"/><g class="cls-16"><path class="cls-7" d="M254.31,232.88c-6.92.69-9.1,5.91-4.87,11.67s13.28,9.85,20.2,9.16,9.1-5.91,4.86-11.66S261.23,232.19,254.31,232.88Z" transform="translate(-50.33 -36.29)"/></g><path class="cls-9" d="M287.44,277.89c23.3-2.32,30.71-19.81,16.7-39.15l.26.33c14.34,19.48,7,37.16-16.46,39.49s-54.05-11.56-68.39-31c-.09-.11-.16-.22-.24-.33C233.75,266.49,264.15,280.21,287.44,277.89Z" transform="translate(-50.33 -36.29)"/><path class="cls-2" d="M181.55,407.9c-17.28,10.22-16.63,26.54,1.45,36.45s46.76,9.67,64.05-.55,16.63-26.55-1.45-36.46S198.84,397.67,181.55,407.9ZM196.37,416c9.46-5.6,25.16-5.74,35.07-.31s10.25,14.37.79,20-25.16,5.74-35.07.31S186.91,421.61,196.37,416Z" transform="translate(-50.33 -36.29)"/><path class="cls-4" d="M245.82,398.75c-18.09-9.91-46.76-9.66-64,.56-5.56,3.28-9.25,7.21-11.12,11.34l.3,3.53L169,415.65c0,.65.51,8.27.58,8.92v.11h0c.66,6.26,5.31,12.42,13.91,17.13,18.08,9.91,46.76,9.67,64-.56,8.3-4.9,12.45-11.21,12.54-17.55h0v-.27c0-.27,0-.55,0-.83L259.6,413l-.86-1.11C256.86,407,252.55,402.44,245.82,398.75Zm-14.16,8.37c9.9,5.43,10.25,14.37.79,20s-25.16,5.73-35.06.3-10.26-14.36-.8-20S221.75,401.7,231.66,407.12Z" transform="translate(-50.33 -36.29)"/><path class="cls-5" d="M236.22,446.11l.25-22.18a12.46,12.46,0,0,0,1.24-1.56l9.64,5.29-.15,13.79A52.41,52.41,0,0,1,236.22,446.11Z" transform="translate(-50.33 -36.29)"/><path class="cls-5" d="M177.25,402.44l15.17,8.32c-4.34,4.83-3.42,10.79,2.66,15.18l-.23,20.42a54.87,54.87,0,0,1-11.33-4.56,35.46,35.46,0,0,1-7.61-5.47l.37-33.06C176.59,403,176.92,402.72,177.25,402.44Z" transform="translate(-50.33 -36.29)"/><path class="cls-5" d="M199.23,428.31a36,36,0,0,0,10.43,2.77l.47.25-.2,17.57A73.66,73.66,0,0,1,199,447.39Z" transform="translate(-50.33 -36.29)"/><path class="cls-5" d="M212.69,437.9l2.71,1.48-.18,9.69c-.92,0-1.83,0-2.74-.05Z" transform="translate(-50.33 -36.29)"/><path class="cls-5" d="M230.22,433.37l2.72,1.49-.23,12.2c-.91.22-1.83.41-2.75.59Z" transform="translate(-50.33 -36.29)"/><path class="cls-6" d="M245.69,395c-18-10-46.76-9.66-64.05.56S165,422.09,183.09,432s46.69,9.54,64-.56C264.31,421.45,263.72,405,245.69,395Zm-14.16,8.38c9.9,5.42,10.25,14.36.79,20s-25.16,5.73-35.07.3-10.25-14.36-.79-20S221.62,397.94,231.53,403.37Z" transform="translate(-50.33 -36.29)"/><path class="cls-7" d="M181.36,395.39c-17.29,10.22-16.64,26.54,1.45,36.46s46.76,9.66,64-.56,16.64-26.54-1.45-36.45S198.64,385.17,181.36,395.39Zm14.81,8.12c9.47-5.59,25.17-5.73,35.07-.3s10.26,14.36.79,20-25.16,5.73-35.06.31S186.71,409.11,196.17,403.51Z" transform="translate(-50.33 -36.29)"/><path class="cls-8" d="M185.84,397.85c-15.07,8.91-14.5,23.14,1.27,31.78s40.76,8.43,55.83-.48,14.5-23.14-1.27-31.78S200.91,388.94,185.84,397.85Z" transform="translate(-50.33 -36.29)"/><path class="cls-4" d="M187.91,399c-14,8.27-13.45,21.47,1.17,29.48s37.81,7.82,51.79-.45,13.45-21.46-1.17-29.48S201.89,390.72,187.91,399Z" transform="translate(-50.33 -36.29)"/><path class="cls-9" d="M240.66,399.09l-62.24,18.16c1.37,4.13,4.93,8.07,10.66,11.21a40.86,40.86,0,0,0,5.81,2.61L251,414.7C251.45,409.11,248,403.42,240.66,399.09Zm-62.81,12.79,55.4-16.17a54,54,0,0,0-9-2.25c-15.93,4.44-32.75,9.23-44.28,12.77A13.73,13.73,0,0,0,177.85,411.88Z" transform="translate(-50.33 -36.29)"/><path class="cls-10" d="M231.35,409q3.78,2.1,3.68,4.63a6.56,6.56,0,0,1-2.76,4.74l3.11,1.72q.92.51,1.35.81a2.6,2.6,0,0,1,.73.78.76.76,0,0,1-.13,1,5.5,5.5,0,0,1-1.53,1.08,9.43,9.43,0,0,1-2,.81,4,4,0,0,1-1.78,0,7.7,7.7,0,0,1-1.38-.42c-.35-.15-.84-.41-1.49-.77l-3-1.66a27.26,27.26,0,0,1-5.37,1.27,26.07,26.07,0,0,1-4.24.31l-1.51-.1a8.52,8.52,0,0,1-3.15-.53,2.32,2.32,0,0,1-1-2.52,2.17,2.17,0,0,1,1.25-1.67,12,12,0,0,1,4.83-.72h.5a10.8,10.8,0,0,0,5.56-.95q3.92-2.09.95-3.72a4.48,4.48,0,0,0-3.13-.13,47.07,47.07,0,0,0-4.65,1.34c-1.71.58-3.54,1.1-5.47,1.57a20,20,0,0,1-6.27.43,15.26,15.26,0,0,1-6.34-1.9q-2.87-1.57-3.18-3.95t2.55-4.62l-2.72-1.51c-.65-.36-1.11-.63-1.38-.82a2.87,2.87,0,0,1-.72-.75.73.73,0,0,1,.12-1,6.09,6.09,0,0,1,1.56-1.09,6.62,6.62,0,0,1,2.71-.83,4.93,4.93,0,0,1,2,.22,19.1,19.1,0,0,1,2,1l2.72,1.5a27.65,27.65,0,0,1,3.52-1,24.66,24.66,0,0,1,2.57-.41l.86,0,.36,0a7.33,7.33,0,0,1,3.12.29,2.81,2.81,0,0,1,1.18,1.8,2,2,0,0,1-1,2.62,8.42,8.42,0,0,1-2.95.73l-.87,0c-.44,0-.83.06-1.17.1a7.91,7.91,0,0,0-1.37.33,10.51,10.51,0,0,0-1.81.78,2.56,2.56,0,0,0-1.3,1.35c-.2.54,0,1,.67,1.35a4.68,4.68,0,0,0,2.91.43,14.24,14.24,0,0,0,3.55-.93c1.2-.49,2.61-1,4.22-1.46s3.18-.89,4.69-1.2a14.94,14.94,0,0,1,5.07-.09A15.19,15.19,0,0,1,231.35,409Z" transform="translate(-50.33 -36.29)"/><path class="cls-7" d="M230.84,408.65c2.53,1.39,3.76,2.94,3.69,4.63a6.6,6.6,0,0,1-2.76,4.74l3.1,1.72c.62.34,1.07.61,1.36.81a2.42,2.42,0,0,1,.72.77.76.76,0,0,1-.13,1,5.72,5.72,0,0,1-1.53,1.08,9.17,9.17,0,0,1-2,.81,4,4,0,0,1-1.78,0,8.12,8.12,0,0,1-1.39-.42c-.34-.16-.83-.41-1.48-.77l-3-1.67a26.52,26.52,0,0,1-5.38,1.28,25.65,25.65,0,0,1-4.23.3l-1.51-.09a8.67,8.67,0,0,1-3.15-.54,2.3,2.3,0,0,1-1-2.52,2.15,2.15,0,0,1,1.25-1.66,11.89,11.89,0,0,1,4.82-.72h.51a10.85,10.85,0,0,0,5.55-.95c2.62-1.39,2.93-2.63,1-3.73a4.55,4.55,0,0,0-3.13-.12,44.49,44.49,0,0,0-4.65,1.34q-2.58.87-5.47,1.56a20,20,0,0,1-6.27.44,15.32,15.32,0,0,1-6.34-1.9c-1.91-1.06-3-2.37-3.18-3.95s.64-3.12,2.55-4.63l-2.72-1.5c-.65-.36-1.11-.64-1.38-.83a2.71,2.71,0,0,1-.73-.74.73.73,0,0,1,.13-1,5.85,5.85,0,0,1,1.56-1.09,6.39,6.39,0,0,1,2.7-.83,4.72,4.72,0,0,1,2,.22,17.2,17.2,0,0,1,1.95,1l2.72,1.5a26.23,26.23,0,0,1,3.53-1c1.17-.23,2-.37,2.57-.42l.86,0,.36,0a7.51,7.51,0,0,1,3.12.29,2.82,2.82,0,0,1,1.17,1.81,2,2,0,0,1-1,2.62,8.59,8.59,0,0,1-2.95.73l-.86,0q-.66,0-1.17.09a7.89,7.89,0,0,0-1.37.34,10.59,10.59,0,0,0-1.82.78,2.53,2.53,0,0,0-1.3,1.35c-.19.54,0,1,.68,1.35a4.75,4.75,0,0,0,2.91.43,13.86,13.86,0,0,0,3.55-.94c1.2-.48,2.61-1,4.22-1.45s3.17-.89,4.68-1.21a15.79,15.79,0,0,1,10.46,1.72Z" transform="translate(-50.33 -36.29)"/><path class="cls-9" d="M240.37,427.74c13.9-8.22,13.45-21.31-.93-29.34l.26.13c14.62,8,15.15,21.22,1.17,29.48s-37.16,8.47-51.79.45l-.24-.14C203.48,436.2,226.47,436,240.37,427.74Z" transform="translate(-50.33 -36.29)"/><path class="cls-4" d="M195.74,276.74l-.81-1.88L183,267.56c-.34-.22-.69-.42-1-.62l-.34-.19h0c-8.12-4.3-19-3.42-31.06,3.71-25,14.85-45.35,51.14-45.35,81.05,0,14.21,4.59,24.41,12.09,29.63h0l.14.09c.78.53,10.1,6.52,10.94,6.95l3.21-1.43,4.29,2.84c6.55.51,14.11-1.46,22.17-6.24,25.05-14.85,45.35-51.14,45.35-81C203.38,291.16,200.56,282.48,195.74,276.74ZM158,358.84c-13.71,8.13-24.83,1.45-24.83-14.92s11.12-36.25,24.83-44.38,24.83-1.45,24.83,14.92S171.74,350.71,158,358.84Z" transform="translate(-50.33 -36.29)"/><path class="cls-5" d="M136.47,281.5l28.38,15.14a17.48,17.48,0,0,1,2.84-.5V280.19L150,270.78A75.15,75.15,0,0,0,136.47,281.5Z" transform="translate(-50.33 -36.29)"/><path class="cls-5" d="M150.89,386.9V361.83c-9.17,2.15-16.11-3.18-17.45-14l-26.13-13.95a79.63,79.63,0,0,0-2.1,17.59A52,52,0,0,0,106.86,365l42.3,22.57C149.73,387.36,150.31,387.14,150.89,386.9Z" transform="translate(-50.33 -36.29)"/><path class="cls-5" d="M133.32,340.93a52,52,0,0,1,3.75-15.19V325l-22.48-12a110.11,110.11,0,0,0-5.69,14.92Z" transform="translate(-50.33 -36.29)"/><path class="cls-5" d="M130.51,317.14v-4.49l-12.45-6.52c-.64,1.16-1.25,2.33-1.85,3.52Z" transform="translate(-50.33 -36.29)"/><path class="cls-5" d="M148.48,298V293.5l-15.67-8.21c-.91,1-1.8,2-2.67,3.09Z" transform="translate(-50.33 -36.29)"/><path class="cls-6" d="M162.72,277.82c-24.95,15-45.35,51.15-45.35,81.05s20.3,42.12,45.35,27.26,45.51-51.14,45.35-81.05S187.41,263,162.72,277.82Zm0,83.81c-13.71,8.13-24.83,1.45-24.83-14.93s11.12-36.24,24.83-44.37,24.83-1.45,24.83,14.92S176.43,353.49,162.72,361.63Z" transform="translate(-50.33 -36.29)"/><path class="cls-7" d="M208.07,305.55c0-29.91-20.31-42.11-45.35-27.26s-45.35,51.15-45.35,81.06,20.3,42.11,45.35,27.25S208.07,335.46,208.07,305.55Zm-70.18,41.63c0-16.38,11.12-36.25,24.83-44.38s24.83-1.45,24.83,14.92S176.43,354,162.72,362.1,137.89,363.55,137.89,347.18Z" transform="translate(-50.33 -36.29)"/><path class="cls-8" d="M202.25,308.53c0-26.07-17.7-36.71-39.53-23.76s-39.53,44.58-39.53,70.66,17.7,36.71,39.53,23.76S202.25,334.6,202.25,308.53Z" transform="translate(-50.33 -36.29)"/><path class="cls-4" d="M199.39,310.23c0-24.19-16.42-34.06-36.67-22s-36.67,41.35-36.67,65.54,16.42,34,36.67,22S199.39,334.41,199.39,310.23Z" transform="translate(-50.33 -36.29)"/><path class="cls-9" d="M186.68,284.63l-59.9,59.9a60.61,60.61,0,0,0-.73,9.2c0,9.48,2.53,16.75,6.82,21.37l66.49-66.48C199,296.26,194.14,287.91,186.68,284.63ZM148,380.82c12.53-12.19,30.34-30.24,47.1-47.4a78.57,78.57,0,0,0,3.42-13l-59.18,59.18A19.67,19.67,0,0,0,148,380.82Z" transform="translate(-50.33 -36.29)"/><path class="cls-9" d="M162.72,289c20.14-11.95,36.47-2.25,36.66,21.63,0-.14,0-.28,0-.42,0-24.19-16.42-34.06-36.67-22s-36.67,41.35-36.67,65.54c0,.14,0,.27,0,.41C126.24,330,142.58,301,162.72,289Z" transform="translate(-50.33 -36.29)"/><path class="cls-17" d="M181,328.85a29.32,29.32,0,0,1-3.44,13.56A46.1,46.1,0,0,1,169.2,354v5.66c0,1.11,0,2-.07,2.61a11.16,11.16,0,0,1-.5,2.31,7.13,7.13,0,0,1-1.38,2.51,14.15,14.15,0,0,1-2.56,2.32,8.76,8.76,0,0,1-2.56,1.44,1,1,0,0,1-1.34-.57,5.1,5.1,0,0,1-.46-1.61c-.05-.52-.07-1.37-.07-2.55v-5.48a13.34,13.34,0,0,1-5.66,1.5,6.59,6.59,0,0,1-3.52-.7l-1-.77a3.32,3.32,0,0,1-1.61-2.54q0-2.2,2.6-7a12,12,0,0,1,3.14-4,4.33,4.33,0,0,1,4.51-.21l.38.16q2.37,1.62,5.35-.56,5.65-4.15,5.66-9.54c0-1.3-.71-1.77-2.14-1.44a29.52,29.52,0,0,0-5.2,1.91,38.65,38.65,0,0,1-6.12,2.23,5.32,5.32,0,0,1-5.2-1.05c-1.42-1.25-2.14-3.67-2.14-7.27a28.21,28.21,0,0,1,2.91-11.58,37.29,37.29,0,0,1,8-11.36v-4.95c0-1.18,0-2.07.07-2.67a12.65,12.65,0,0,1,.46-2.23,6.77,6.77,0,0,1,1.38-2.51,15.29,15.29,0,0,1,2.6-2.35c1.38-1,2.41-1.42,3.1-1.25a1.47,1.47,0,0,1,1.18,1.3,25,25,0,0,1,.15,3.24V302a15.86,15.86,0,0,1,3.9-1.36,9.12,9.12,0,0,1,2.45-.2l.69.21.3,0c1.28.42,1.92,1,1.92,1.87a17.52,17.52,0,0,1-1.53,5.18c-1.38,3.37-2.78,5.57-4.21,6.62a4.56,4.56,0,0,1-3.13.88c-.11,0-.34-.11-.69-.2a4.81,4.81,0,0,0-1-.16,4.17,4.17,0,0,0-1.45.4,12.66,12.66,0,0,0-2.37,1.43,11.14,11.14,0,0,0-2.75,3.12,7.27,7.27,0,0,0-1.3,3.83c0,1.41.52,2.13,1.57,2.16a7.84,7.84,0,0,0,3.86-1.24,43.77,43.77,0,0,1,5-2.37,29.69,29.69,0,0,1,5.05-1.53,3.73,3.73,0,0,1,3.86,1.55C180.46,323.5,181,325.73,181,328.85Z" transform="translate(-50.33 -36.29)"/><path class="cls-7" d="M181,328.07a29.32,29.32,0,0,1-3.44,13.56,46.1,46.1,0,0,1-8.34,11.59v5.66c0,1.11,0,2-.07,2.61a11.16,11.16,0,0,1-.5,2.31,7.13,7.13,0,0,1-1.38,2.51,14.15,14.15,0,0,1-2.56,2.32,8.76,8.76,0,0,1-2.56,1.44,1,1,0,0,1-1.34-.57,5.1,5.1,0,0,1-.46-1.61c-.05-.52-.07-1.37-.07-2.55v-5.48a13.34,13.34,0,0,1-5.66,1.5,6.59,6.59,0,0,1-3.52-.7l-1-.77a3.32,3.32,0,0,1-1.61-2.54q0-2.21,2.6-7a12,12,0,0,1,3.14-4,4.33,4.33,0,0,1,4.51-.21l.38.16q2.37,1.62,5.35-.56,5.65-4.15,5.66-9.54c0-1.3-.71-1.77-2.14-1.44a29.52,29.52,0,0,0-5.2,1.91,38.65,38.65,0,0,1-6.12,2.23,5.32,5.32,0,0,1-5.2-1c-1.42-1.25-2.14-3.67-2.14-7.27A28.21,28.21,0,0,1,152.23,319a37.29,37.29,0,0,1,8-11.36v-4.95c0-1.18,0-2.07.07-2.67a12.65,12.65,0,0,1,.46-2.23,6.85,6.85,0,0,1,1.38-2.51,15.29,15.29,0,0,1,2.6-2.35c1.38-1,2.41-1.42,3.1-1.25a1.47,1.47,0,0,1,1.18,1.3,25,25,0,0,1,.15,3.24v4.95a15.86,15.86,0,0,1,3.9-1.36,9.12,9.12,0,0,1,2.45-.2l.69.21.3,0c1.28.42,1.92,1,1.92,1.87a17.52,17.52,0,0,1-1.53,5.18c-1.38,3.37-2.78,5.57-4.21,6.62a4.56,4.56,0,0,1-3.13.88c-.11,0-.34-.11-.69-.2a4.81,4.81,0,0,0-1-.16,4.17,4.17,0,0,0-1.45.4,12.66,12.66,0,0,0-2.37,1.43,11.14,11.14,0,0,0-2.75,3.12,7.27,7.27,0,0,0-1.3,3.83c0,1.41.52,2.13,1.57,2.16a7.84,7.84,0,0,0,3.86-1.24,43.77,43.77,0,0,1,5-2.37,29.69,29.69,0,0,1,5.05-1.53,3.73,3.73,0,0,1,3.86,1.55C180.46,322.72,181,325,181,328.07Z" transform="translate(-50.33 -36.29)"/><path class="cls-18" d="M315.92,412.63h0a3.15,3.15,0,0,1-3.14-3.15V393.66a3.15,3.15,0,0,1,3.14-3.14h0a3.15,3.15,0,0,1,3.14,3.14v15.82A3.15,3.15,0,0,1,315.92,412.63Z" transform="translate(-50.33 -36.29)"/><path class="cls-18" d="M348,394.78h0a3.15,3.15,0,0,1-3.14-3.14V375.81a3.15,3.15,0,0,1,3.14-3.14h0a3.15,3.15,0,0,1,3.14,3.14v15.83A3.15,3.15,0,0,1,348,394.78Z" transform="translate(-50.33 -36.29)"/><path class="cls-19" d="M361.15,314.06l-.63-1.45-14-8.25-.8-.47-.27-.15h0c-6.28-3.33-14.73-2.65-24,2.87-19.38,11.49-35.09,39.57-35.09,62.71,0,11,3.55,18.89,9.35,22.92h0l.11.07c.6.41,12.62,7.64,13.27,8l2.49-1.11,3.32,2.2c5.07.39,10.92-1.13,17.15-4.82,19.38-11.5,35.09-39.58,35.09-62.72C367.06,325.22,364.88,318.51,361.15,314.06ZM332,377.59c-10.61,6.29-19.21,1.12-19.21-11.55s8.6-28,19.21-34.34,19.21-1.12,19.21,11.55S342.58,371.29,332,377.59Z" transform="translate(-50.33 -36.29)"/><path class="cls-20" d="M311.29,314.36l19,11.62,1.15-4-17-10.45C313.37,312.44,312.32,313.38,311.29,314.36Z" transform="translate(-50.33 -36.29)"/><path class="cls-20" d="M332,377.57l0,0c-10.61,6.29-19.21,1.12-19.21-11.55,0-.1,0-.19,0-.28L289.1,351.21a64.43,64.43,0,0,0-2.81,18.11c0,.43,0,.85,0,1.27l44,26.89c.57-.3,1.13-.6,1.69-.93a60,60,0,0,0,13.18-10.89Z" transform="translate(-50.33 -36.29)"/><path class="cls-20" d="M315.39,345.16l1.15-4-17.94-11c-.7,1.14-1.39,2.3-2.05,3.48Z" transform="translate(-50.33 -36.29)"/><path class="cls-20" d="M313.5,359.29a44.8,44.8,0,0,1,2.87-8.78l-21.69-13.33a85.55,85.55,0,0,0-3.66,8.35Z" transform="translate(-50.33 -36.29)"/><path class="cls-21" d="M335.6,314.9c-19.3,11.62-35.09,39.57-35.09,62.71s15.71,32.59,35.09,21.09,35.21-39.57,35.09-62.71S354.7,303.4,335.6,314.9Zm0,64.84c-10.61,6.3-19.21,1.13-19.21-11.54s8.6-28.05,19.21-34.34,19.21-1.12,19.21,11.55S346.21,373.45,335.6,379.74Z" transform="translate(-50.33 -36.29)"/><path class="cls-22" d="M365.82,310h0a2.86,2.86,0,0,1-.18-4l13.21-14.49a2.87,2.87,0,0,1,4-.18h0a2.87,2.87,0,0,1,.19,4l-13.22,14.49A2.87,2.87,0,0,1,365.82,310Z" transform="translate(-50.33 -36.29)"/><path class="cls-22" d="M369.55,315.55h0a2.87,2.87,0,0,1,2.11-3.45l14.65-3.63a2.87,2.87,0,0,1,3.45,2.11h0a2.87,2.87,0,0,1-2.11,3.45L373,317.65A2.86,2.86,0,0,1,369.55,315.55Z" transform="translate(-50.33 -36.29)"/><path class="cls-22" d="M360,305.65h0a2.87,2.87,0,0,0,3.25-2.42l2.26-14.92a2.87,2.87,0,0,0-2.42-3.24h0a2.87,2.87,0,0,0-3.24,2.41l-2.26,14.92A2.87,2.87,0,0,0,360,305.65Z" transform="translate(-50.33 -36.29)"/><path class="cls-23" d="M370.69,336.35c0-23.14-15.71-32.58-35.09-21.08S300.51,354.84,300.51,378s15.71,32.58,35.09,21.09S370.69,359.5,370.69,336.35Zm-54.3,32.21c0-12.67,8.6-28,19.21-34.34s19.21-1.12,19.21,11.55-8.6,28-19.21,34.34S316.39,381.23,316.39,368.56Z" transform="translate(-50.33 -36.29)"/><path class="cls-24" d="M364,340c0-18.71-12.7-26.35-28.37-17.05s-28.37,32-28.37,50.71,12.7,26.35,28.37,17.05S364,358.69,364,340Z" transform="translate(-50.33 -36.29)"/><path class="cls-22" d="M361.92,341.19c0-17.36-11.78-24.44-26.32-15.82s-26.32,29.68-26.32,47,11.79,24.44,26.32,15.82S361.92,358.55,361.92,341.19Z" transform="translate(-50.33 -36.29)"/><path class="cls-25" d="M335.6,326c14.45-8.57,26.18-1.62,26.31,15.52,0-.1,0-.2,0-.3,0-17.36-11.78-24.44-26.32-15.82s-26.32,29.68-26.32,47c0,.1,0,.2,0,.3C309.42,355.41,321.15,334.54,335.6,326Z" transform="translate(-50.33 -36.29)"/><path class="cls-26" d="M342.17,352.9c0-4.33-2.94-6.1-6.57-3.94S329,356.36,329,360.7s2.94,6.1,6.57,3.95A15.07,15.07,0,0,0,342.17,352.9Z" transform="translate(-50.33 -36.29)"/><polygon class="cls-27" points="291.52 300.02 285.19 293.64 278.87 306.98 282.23 305.13 282.23 319.72 288.16 316.46 288.16 301.87 291.52 300.02"/><polygon class="cls-28" points="285.19 293.93 291.34 300.13 291.52 300.02 285.19 293.64 278.87 306.98 279.05 306.87 285.19 293.93"/><polygon class="cls-20" points="297.86 333.13 301.42 332.89 300.37 329.48 299.7 330.45 286.4 321.29 285.23 323 298.52 332.16 297.86 333.13"/><path class="cls-18" d="M340.76,353.91c0-3.4-2.31-4.79-5.16-3.1a11.8,11.8,0,0,0-5.15,9.22c0,3.4,2.3,4.78,5.15,3.09A11.79,11.79,0,0,0,340.76,353.91Z" transform="translate(-50.33 -36.29)"/><path class="cls-27" d="M338.38,355.32c0-1.83-1.25-2.58-2.78-1.67a6.36,6.36,0,0,0-2.77,5c0,1.83,1.24,2.58,2.77,1.67A6.37,6.37,0,0,0,338.38,355.32Z" transform="translate(-50.33 -36.29)"/><path class="cls-29" d="M337.34,355.93c0-1.14-.78-1.61-1.74-1a4,4,0,0,0-1.74,3.11c0,1.15.78,1.62,1.74,1.05A4,4,0,0,0,337.34,355.93Z" transform="translate(-50.33 -36.29)"/><path class="cls-30" d="M330.75,360.24A11.82,11.82,0,0,1,335.9,351a3.49,3.49,0,0,1,3.69-.33c-.95-.82-2.38-.84-4,.11a11.8,11.8,0,0,0-5.15,9.22,3.84,3.84,0,0,0,1.47,3.43A4.12,4.12,0,0,1,330.75,360.24Z" transform="translate(-50.33 -36.29)"/><path class="cls-31" d="M341.88,297.89h-17v9h0c0,1.26.89,2.52,2.62,3.47a13.4,13.4,0,0,0,12-.11,4,4,0,0,0,2.35-3.36h0Z" transform="translate(-50.33 -36.29)"/><path class="cls-2" d="M327.29,293.67a13.28,13.28,0,0,1,11.88-.11c3.36,1.84,3.48,4.87.27,6.77a13.28,13.28,0,0,1-11.88.1C324.2,298.59,324.08,295.56,327.29,293.67Z" transform="translate(-50.33 -36.29)"/><path class="cls-32" d="M344.05,287.81c-6.13-3.36-15.85-3.27-21.71.19a8.91,8.91,0,0,0-3.77,3.85l.1,1.19-.66.5c0,.22.18,2.81.2,3v0h0c.23,2.12,1.8,4.21,4.72,5.81,6.13,3.36,15.85,3.27,21.71-.19,2.81-1.66,4.22-3.8,4.25-6h0v-.1a2.72,2.72,0,0,0,0-.28l-.16-3.26-.29-.38A9.17,9.17,0,0,0,344.05,287.81Zm-4.8,2.84c3.36,1.84,3.48,4.87.27,6.77a13.3,13.3,0,0,1-11.89.1c-3.36-1.84-3.48-4.87-.27-6.77A13.33,13.33,0,0,1,339.25,290.65Z" transform="translate(-50.33 -36.29)"/><path class="cls-33" d="M328.39,290.25a8.89,8.89,0,0,1,1.06-.39v-1.33h-1.06Zm0,14.1c.35.07.7.14,1.06.19v-6.26a11,11,0,0,1-1.06-.39Zm3-14.91c.35-.05.71-.09,1.06-.11v-.8h-1.06Zm0,15.34,1.06.07v-6c-.35,0-.71-.06-1.06-.11Zm-6-12.07a4.16,4.16,0,0,1,1.06-1.29v-2.89h-1.06Zm0,2.68v8.11c.34.13.7.24,1.06.35V296.7A4.22,4.22,0,0,1,325.37,295.39Zm-6.05-4.79v8.78a9,9,0,0,0,1.06,1.21V289.43A8.76,8.76,0,0,0,319.32,290.6Zm3,11.47.59.34.47.25V288.53h-1.06Zm12.1-12.73c.35,0,.71.07,1.06.12v-.93h-1.06Zm6,2.16a4.32,4.32,0,0,1,1.06,1.34v-4.31h-1.06Zm3,11.33c.37-.18.72-.37,1.06-.57V288.53H343.5Zm3-13.26v11.28a10,10,0,0,0,1.06-1.12v-9A8.83,8.83,0,0,0,346.53,289.57Zm-9.07,15c.35-.05.71-.11,1.06-.18v-6.5a11,11,0,0,1-1.06.39Zm-3,.26,1.06-.05v-6.08c-.35,0-.71.09-1.06.11Zm3-15c.36.12.72.25,1.06.4v-1.77h-1.06Zm3,6.83V304c.36-.1.71-.21,1.06-.33v-8.22A4.25,4.25,0,0,1,340.48,296.73Z" transform="translate(-50.33 -36.29)"/><path class="cls-34" d="M344,287.1c-6.11-3.4-15.88-3.84-21.74-.37s-5.64,9,.49,12.36,15.84,3.23,21.72-.19S350.15,290.49,344,287.1Zm-4.82,2.28c3.35,1.84,3.47,4.87.26,6.76a13.28,13.28,0,0,1-11.88.11c-3.36-1.84-3.48-4.87-.27-6.77A13.3,13.3,0,0,1,339.21,289.38Z" transform="translate(-50.33 -36.29)"/><path class="cls-35" d="M322.2,286.67c-5.86,3.47-5.64,9,.49,12.36s15.85,3.28,21.71-.18,5.64-9-.49-12.36S328.06,283.21,322.2,286.67Zm5,2.76a13.3,13.3,0,0,1,11.89-.11c3.36,1.84,3.48,4.87.27,6.77a13.3,13.3,0,0,1-11.89.11C324.13,294.35,324,291.32,327.22,289.43Z" transform="translate(-50.33 -36.29)"/><path class="cls-36" d="M323.72,287.51c-5.11,3-4.92,7.84.43,10.77s13.82,2.86,18.92-.16,4.92-7.85-.42-10.78S328.83,284.49,323.72,287.51Z" transform="translate(-50.33 -36.29)"/><path class="cls-19" d="M324.42,287.89c-4.74,2.8-4.56,7.28.4,10s12.82,2.65,17.55-.16,4.56-7.27-.39-10S329.16,285.09,324.42,287.89Z" transform="translate(-50.33 -36.29)"/><path class="cls-37" d="M329.69,290.78c-1.95,1.16-1.88,3,.17,4.13a8.09,8.09,0,0,0,7.24-.07c1.95-1.15,1.88-3-.17-4.12A8.12,8.12,0,0,0,329.69,290.78Z" transform="translate(-50.33 -36.29)"/><path class="cls-38" d="M342.2,297.64c4.72-2.79,4.56-7.22-.31-9.95l.09.05c4.95,2.72,5.13,7.19.39,10s-12.6,2.87-17.55.16l-.09-.05C329.69,300.51,337.49,300.43,342.2,297.64Z" transform="translate(-50.33 -36.29)"/><path class="cls-39" d="M274.58,79.71s-1.12,1.63-5.09.51a20.26,20.26,0,0,1-6.72-3.39l0,2.46a12.21,12.21,0,0,0,1.66,6.12A8,8,0,0,0,269,88.67l4.7-.71L275,86l.66-2.57Z" transform="translate(-50.33 -36.29)"/><path class="cls-40" d="M263.09,196s-2.35.71-4.6,4.22l4,4.34,1.64.31a19.53,19.53,0,0,0,4.78,6.69c3.63,3.46,5.35,5.49,7.28,3.5s-4.27-13-6.34-14.31S263.09,196,263.09,196Z" transform="translate(-50.33 -36.29)"/><path class="cls-41" d="M268.27,140.72c.34.79,12.93,23.12,12.93,23.12L262.74,196s.37,5.15,7,6l25.7-35.63a149.28,149.28,0,0,0-8.91-28.94l-8.27-18.91-11.41,6.8Z" transform="translate(-50.33 -36.29)"/><path class="cls-40" d="M225.48,156.07s-2.45-1.18-6.89,0v6.51l1.11,1.47a21.54,21.54,0,0,0-1.11,9c.37,5.52.26,8.46,3.31,8.27s6.26-13.79,5.52-16.36S225.48,156.07,225.48,156.07Z" transform="translate(-50.33 -36.29)"/><path class="cls-42" d="M277.39,128s-4.5,35.82-9,48.14l-4.19,1.14-38.71-10.89s-4.58-3.72,0-10.31l31,4.19-2.05-19.09L266.62,138l9.08-10" transform="translate(-50.33 -36.29)"/><path class="cls-43" d="M262.48,84.32,259.35,88l3.13,12L269,133.07s7.42,1.39,13.34-8.71c-1.22-14.27-2.61-23.18-2.61-23.18l-.18-5.89.35-6.44-3-2.9h-3.83L269,88Z" transform="translate(-50.33 -36.29)"/><polyline class="cls-44" points="219.51 53.15 223.67 55.05 224.93 51.1 224.21 49.55 221.75 50.14"/><path class="cls-45" d="M297.22,48.86a16.77,16.77,0,0,1-2-3,8.77,8.77,0,0,1-.95-5.63s1.36-.71,1.39,2.13l.69,1.36a29.88,29.88,0,0,0,.45-3.47c.15-2.35.13-3.22.13-3.22s0-.7,1-.7a5,5,0,0,1,4,2.55c.74,1.54.24,7.69,0,8.41s-.76,1.93-1.86,2.15A6.38,6.38,0,0,1,297.22,48.86Z" transform="translate(-50.33 -36.29)"/><path class="cls-46" d="M295.44,49.78l.67-2.37a4.73,4.73,0,0,0,5,1.51l-.37,3.13Z" transform="translate(-50.33 -36.29)"/><path class="cls-42" d="M277.18,76.83s9-3.3,12.81-11.14a82.92,82.92,0,0,0,5.74-17.76s.53,2.79,5.58,2.09c0,.36,0,13.3-4.31,22.38-3.34,7-15.21,17.49-15.21,17.49Z" transform="translate(-50.33 -36.29)"/><path class="cls-41" d="M283,92.13c-.28-10.57-5.84-15.3-5.84-15.3h-5.1v.92a5.16,5.16,0,0,1,3.07,4.74v.13a5.06,5.06,0,0,1-.64,2.4c4.7,7.69,3.13,18.2,4.49,26.84,1,6.46,1.62,10.9,2.44,13.92a17.52,17.52,0,0,0,1.58,3.9S283.3,102.7,283,92.13Z" transform="translate(-50.33 -36.29)"/><path class="cls-41" d="M261.32,81.84S261,84.16,264.66,91c4.56,8.42,12.24,31.71,3.34,54.24,0,0-6.4,5.56-18.08-5.57,0,0,11.12-18.91,3.61-32.54,0,0-3.06-10-.27-19.19Z" transform="translate(-50.33 -36.29)"/><path class="cls-47" d="M261.05,82.75s-2.44,5.35,3.14,17.88h2.43l-1.73,2.7,7.19,21.35S274.49,97.58,261.05,82.75Z" transform="translate(-50.33 -36.29)"/><path class="cls-45" d="M219.77,98.48a16.5,16.5,0,0,0-1.29-3.42,8.7,8.7,0,0,0-4-4s-1.37.69.92,2.36l.72,1.35a29.2,29.2,0,0,1-3.1-1.64c-2-1.24-2.69-1.76-2.69-1.76s-.55-.43-1.18.45a5,5,0,0,0-.25,4.74c.82,1.5,6.13,4.66,6.84,4.89a2.91,2.91,0,0,0,2.83-.26A6.37,6.37,0,0,0,219.77,98.48Z" transform="translate(-50.33 -36.29)"/><path class="cls-46" d="M219.3,96.93l2.57,1.37.69,4-4,1.11-1.94-1.75S220.13,100.31,219.3,96.93Z" transform="translate(-50.33 -36.29)"/><path class="cls-42" d="M253.26,88s-10.85,25.59-33.38,8.9c0,0,2.28,4.32-2.79,5.65,0,0,9.74,10.48,21.14,11.73s17.53-5.7,17.53-5.7S261,95.47,253.26,88Z" transform="translate(-50.33 -36.29)"/><path class="cls-47" d="M275.26,80.55s4.74,4.54,5.62,16.38l-1.38.85,1.38,1.5L279,111.86s-.39-11.61-1.61-16.58A139.12,139.12,0,0,1,275.26,80.55Z" transform="translate(-50.33 -36.29)"/><path class="cls-46" d="M262.74,79.29a4.67,4.67,0,0,0-1.13,5.89c1.75,3.81,8.87,7.43,8.87,7.43l1.6-6.18,4.09,3.88s2.67-7.15-2.05-11c0,0,1.4,6.35-2,7.14C267.71,87.43,263.34,84,262.74,79.29Z" transform="translate(-50.33 -36.29)"/><path class="cls-45" d="M262.77,76.83s3.36,4,10.49,4.21a8.36,8.36,0,0,0,3.66-1.33s1.83-5.39-1.73-12.11l-.81-1.12-.21-1.43-1.52-2.75s-1.09,4-9.91,4.48l-.68,2.13,1.73,2,.4,3.86-1.45-2.44a1.93,1.93,0,0,0-2.47-.43C258.13,72.76,260.16,76.83,262.77,76.83Z" transform="translate(-50.33 -36.29)"/><path class="cls-48" d="M264.19,74.72l-.4-3.86-1.73-2,.35-1.1s8.26-.37,10.24-5.51A7.77,7.77,0,0,0,274,57.42l-1.89,1s1-3.27-1.24-5l-2.46,3a9.72,9.72,0,0,0-11.91,3.92l-2.09-.4,1.44,1.44-1.44.83h1.44a9.83,9.83,0,0,0-.44,9.13,10.07,10.07,0,0,0,7.39,5.4s-3.54-1.07-3-3.89c.28-1.52,2.05-1.27,3.21.28A15.58,15.58,0,0,0,264.19,74.72Z" transform="translate(-50.33 -36.29)"/><path class="cls-48" d="M262.41,67.81s2.82,1.55,8.43-.84l-2.46-1.23-3.87.61" transform="translate(-50.33 -36.29)"/><path class="cls-49" d="M274,91.34s1.36,19.27,16.16,24l4.36-1.07-1.75-4.67S280.47,107.42,274,91.34Z" transform="translate(-50.33 -36.29)"/></g></g></svg>